<svg id="svg" version="1.1" xmlns="http://www.w3.org/2000/svg" xmlns:xlink="http://www.w3.org/1999/xlink" width="400" height="300.1733102253033" viewBox="0, 0, 400,300.1733102253033"><g id="svgg"><path id="path0" d="M150.596 73.006 C 148.929 73.888,148.511 74.311,148.027 75.602 C 147.577 76.805,147.179 216.954,147.609 223.057 C 148.132 230.487,156.130 232.220,157.629 225.228 C 158.118 222.949,158.093 78.166,157.603 76.461 C 156.628 73.063,153.449 71.496,150.596 73.006 M128.228 107.931 C 126.575 108.525,125.585 110.210,125.214 113.063 C 124.531 118.324,124.978 190.054,125.703 191.441 C 127.568 195.011,131.922 195.297,134.425 192.016 L 135.285 190.888 135.285 150.924 L 135.285 110.961 134.590 109.986 C 133.095 107.890,130.593 107.081,128.228 107.931 M172.730 107.903 C 172.019 108.099,170.972 108.701,170.404 109.241 C 168.334 111.210,168.468 108.316,168.468 151.040 L 168.468 189.695 169.166 191.019 C 171.263 194.994,176.489 195.381,179.407 191.776 L 180.330 190.635 180.330 151.098 L 180.330 111.562 179.548 110.360 C 178.205 108.297,175.216 107.220,172.730 107.903 M214.859 107.926 C 213.156 108.459,212.150 109.186,211.351 110.460 L 210.661 111.562 210.661 151.098 L 210.661 190.635 211.590 191.789 C 214.391 195.267,219.048 195.109,221.547 191.451 L 222.523 190.022 222.523 151.204 C 222.523 108.439,222.646 111.201,220.649 109.329 C 220.111 108.824,218.973 108.207,218.122 107.959 C 216.323 107.434,216.425 107.435,214.859 107.926 M259.254 107.906 C 257.678 108.348,256.605 109.347,256.006 110.931 C 255.270 112.876,255.463 190.399,256.208 191.756 C 258.039 195.097,263.341 194.912,265.233 191.441 L 266.052 189.940 266.055 151.201 C 266.057 119.285,265.985 112.256,265.648 111.288 C 265.144 109.841,263.627 108.241,262.531 108.001 C 262.080 107.903,261.441 107.762,261.111 107.688 C 260.781 107.614,259.945 107.712,259.254 107.906 M194.895 127.437 C 193.221 127.989,192.594 128.444,191.844 129.651 L 191.141 130.781 191.141 150.923 L 191.141 171.065 191.941 172.274 C 194.193 175.677,199.261 175.325,200.929 171.651 C 201.624 170.123,201.819 133.113,201.145 130.862 C 200.599 129.039,197.612 126.791,196.096 127.063 C 196.014 127.078,195.473 127.246,194.895 127.437 M237.309 127.479 C 235.508 128.060,234.485 128.869,233.706 130.328 L 233.033 131.588 233.034 151.004 C 233.035 169.407,233.064 170.467,233.594 171.321 C 236.273 175.643,241.537 175.791,244.298 171.622 C 244.926 170.674,245.413 138.552,244.887 132.764 C 244.661 130.272,242.898 127.918,240.973 127.538 C 240.487 127.442,239.752 127.297,239.339 127.215 C 238.926 127.133,238.013 127.252,237.309 127.479 M280.858 127.459 C 277.969 129.057,278.078 128.140,278.078 150.782 L 278.078 170.559 279.131 172.205 C 281.645 176.135,287.877 174.540,288.444 169.822 C 288.899 166.032,288.456 130.813,287.941 129.880 C 286.583 127.417,283.090 126.224,280.858 127.459 M108.504 136.057 C 107.164 136.721,106.397 137.648,105.791 139.339 C 105.256 140.833,105.256 160.968,105.791 162.462 C 107.356 166.830,112.164 167.722,115.015 164.174 C 115.866 163.115,116.229 155.378,115.955 144.184 L 115.827 138.969 114.882 137.728 C 113.187 135.500,110.861 134.891,108.504 136.057 M300.751 135.786 C 297.676 137.486,297.598 137.858,297.598 150.730 C 297.598 161.769,297.602 161.856,298.309 163.453 C 299.899 167.049,305.479 167.351,307.221 163.936 C 307.944 162.519,308.124 139.480,307.422 138.250 C 306.152 136.027,302.652 134.734,300.751 135.786 " stroke="none" fill="#fcf8f9" fill-rule="evenodd"></path><path id="path1" d="M181.532 0.198 C 180.045 0.257,178.559 0.430,178.228 0.582 C 177.898 0.733,177.121 0.941,176.502 1.043 C 175.882 1.145,175.375 1.357,175.375 1.515 C 175.375 1.673,174.573 1.802,173.591 1.802 C 172.610 1.802,171.724 1.937,171.622 2.102 C 171.520 2.267,170.641 2.402,169.670 2.402 C 168.698 2.402,167.820 2.538,167.718 2.703 C 167.616 2.868,166.958 3.003,166.256 3.003 C 165.554 3.003,164.717 3.201,164.397 3.444 C 164.076 3.686,163.510 3.889,163.138 3.894 C 162.767 3.900,162.462 4.039,162.462 4.204 C 162.462 4.369,161.854 4.505,161.111 4.505 C 160.368 4.505,159.760 4.640,159.760 4.805 C 159.760 4.970,159.161 5.105,158.430 5.105 C 157.648 5.105,156.914 5.291,156.650 5.556 C 156.402 5.803,155.784 6.006,155.277 6.006 C 154.769 6.006,154.354 6.141,154.354 6.306 C 154.354 6.471,153.881 6.607,153.303 6.607 C 152.725 6.607,152.252 6.742,152.252 6.907 C 152.252 7.072,151.914 7.207,151.502 7.207 C 151.034 7.207,150.751 7.377,150.751 7.658 C 150.751 7.971,150.436 8.108,149.717 8.108 C 149.149 8.108,148.601 8.243,148.498 8.408 C 148.396 8.574,147.915 8.709,147.430 8.709 C 146.944 8.709,146.547 8.844,146.547 9.009 C 146.547 9.174,146.137 9.309,145.636 9.309 C 145.104 9.309,144.654 9.496,144.553 9.760 C 144.458 10.008,144.124 10.210,143.812 10.210 C 143.499 10.210,143.243 10.345,143.243 10.511 C 143.243 10.676,142.904 10.811,142.488 10.811 C 142.073 10.811,141.465 10.946,141.137 11.111 C 140.809 11.276,140.272 11.547,139.944 11.712 C 139.616 11.877,139.143 12.012,138.893 12.012 C 138.643 12.012,138.438 12.215,138.438 12.462 C 138.438 12.743,138.155 12.913,137.688 12.913 C 137.275 12.913,136.937 13.048,136.937 13.213 C 136.937 13.378,136.599 13.514,136.186 13.514 C 135.773 13.514,135.435 13.649,135.435 13.814 C 135.435 13.979,135.165 14.114,134.835 14.114 C 134.501 14.114,134.234 14.314,134.234 14.565 C 134.234 14.879,133.917 15.015,133.183 15.015 C 132.605 15.015,132.132 15.150,132.132 15.315 C 132.132 15.480,131.852 15.616,131.510 15.616 C 131.168 15.616,130.700 15.785,130.469 15.991 C 129.476 16.882,129.136 17.117,128.842 17.117 C 128.669 17.117,128.529 17.252,128.529 17.417 C 128.529 17.583,128.123 17.718,127.628 17.718 C 127.132 17.718,126.727 17.853,126.727 18.018 C 126.727 18.183,126.524 18.318,126.276 18.318 C 126.029 18.318,125.826 18.472,125.826 18.661 C 125.826 19.122,124.898 19.798,124.249 19.810 C 123.960 19.816,123.724 19.955,123.724 20.120 C 123.724 20.285,123.542 20.420,123.319 20.420 C 122.717 20.420,121.021 21.323,121.021 21.644 C 121.021 21.797,120.745 21.922,120.407 21.922 C 119.768 21.922,118.318 23.163,118.318 23.710 C 118.318 23.883,117.980 24.024,117.568 24.024 C 117.155 24.024,116.817 24.159,116.817 24.324 C 116.817 24.489,116.596 24.625,116.327 24.625 C 116.057 24.625,115.391 25.098,114.845 25.676 C 114.300 26.254,113.633 26.727,113.362 26.727 C 113.091 26.727,112.692 26.896,112.474 27.102 C 112.257 27.309,111.701 27.748,111.240 28.078 C 110.779 28.408,110.095 28.983,109.719 29.354 C 109.344 29.726,108.901 30.030,108.736 30.030 C 108.571 30.030,108.098 30.368,107.685 30.781 C 107.272 31.194,106.851 31.532,106.749 31.532 C 106.443 31.532,105.706 32.366,105.706 32.711 C 105.706 32.888,105.435 33.033,105.105 33.033 C 104.775 33.033,104.505 33.168,104.505 33.333 C 104.505 33.498,104.360 33.634,104.183 33.634 C 103.833 33.634,103.003 34.373,103.003 34.685 C 103.003 35.023,102.160 35.735,101.748 35.745 C 101.205 35.758,100.300 36.477,100.300 36.895 C 100.300 37.083,100.159 37.237,99.986 37.237 C 99.579 37.237,98.198 38.618,98.198 39.025 C 98.198 39.198,98.054 39.339,97.878 39.339 C 97.702 39.339,96.707 40.203,95.668 41.258 C 94.628 42.313,93.488 43.268,93.135 43.380 C 92.782 43.492,92.492 43.815,92.492 44.098 C 92.492 44.381,92.222 44.807,91.892 45.045 C 91.562 45.283,91.291 45.651,91.291 45.862 C 91.291 46.073,91.150 46.246,90.977 46.246 C 90.570 46.246,89.189 47.627,89.189 48.034 C 89.189 48.207,89.044 48.348,88.867 48.348 C 88.435 48.348,87.688 49.119,87.688 49.564 C 87.688 49.761,87.080 50.505,86.336 51.217 C 85.593 51.929,84.985 52.598,84.985 52.704 C 84.985 52.964,84.179 53.754,83.913 53.754 C 83.603 53.754,82.904 54.739,82.892 55.191 C 82.887 55.404,82.275 56.169,81.532 56.891 C 80.788 57.614,80.180 58.358,80.180 58.546 C 80.180 58.734,79.842 59.201,79.429 59.583 C 79.017 59.966,78.679 60.433,78.679 60.620 C 78.679 60.808,78.544 60.961,78.378 60.961 C 78.213 60.961,78.078 61.231,78.078 61.562 C 78.078 61.892,77.933 62.162,77.756 62.162 C 77.248 62.162,76.577 62.967,76.577 63.576 C 76.577 63.882,76.306 64.326,75.976 64.565 C 75.646 64.803,75.375 65.164,75.375 65.368 C 75.375 65.572,75.038 66.076,74.625 66.489 C 74.212 66.902,73.874 67.435,73.874 67.673 C 73.874 67.910,73.538 68.423,73.128 68.812 C 72.718 69.201,72.380 69.688,72.378 69.895 C 72.375 70.101,72.237 70.270,72.072 70.270 C 71.907 70.270,71.772 70.473,71.772 70.721 C 71.772 70.968,71.637 71.171,71.471 71.171 C 71.306 71.171,71.171 71.427,71.171 71.740 C 71.171 72.052,70.968 72.386,70.721 72.481 C 70.473 72.576,70.270 72.928,70.270 73.264 C 70.270 73.599,70.135 73.874,69.970 73.874 C 69.805 73.874,69.670 74.150,69.670 74.488 C 69.670 74.825,69.332 75.466,68.919 75.911 C 68.506 76.356,68.168 76.891,68.168 77.099 C 68.168 77.307,68.033 77.477,67.868 77.477 C 67.703 77.477,67.568 77.748,67.568 78.078 C 67.568 78.408,67.432 78.679,67.267 78.679 C 67.102 78.679,66.967 79.017,66.967 79.429 C 66.967 79.842,66.863 80.180,66.735 80.180 C 66.607 80.180,66.248 80.653,65.937 81.231 C 65.626 81.809,65.257 82.282,65.118 82.282 C 64.979 82.282,64.865 82.755,64.865 83.333 C 64.865 83.911,64.730 84.384,64.565 84.384 C 64.399 84.384,64.264 84.655,64.264 84.985 C 64.264 85.319,64.064 85.586,63.814 85.586 C 63.536 85.586,63.363 85.867,63.363 86.319 C 63.363 86.722,63.228 87.135,63.063 87.237 C 62.898 87.339,62.763 87.685,62.763 88.006 C 62.763 88.326,62.628 88.589,62.462 88.589 C 62.297 88.589,62.162 88.844,62.162 89.157 C 62.162 89.470,61.959 89.803,61.712 89.898 C 61.448 89.999,61.261 90.449,61.261 90.982 C 61.261 91.482,61.126 91.892,60.961 91.892 C 60.796 91.892,60.661 92.289,60.661 92.775 C 60.661 93.261,60.526 93.742,60.360 93.844 C 60.195 93.946,60.060 94.359,60.060 94.762 C 60.060 95.214,59.887 95.495,59.610 95.495 C 59.359 95.495,59.159 95.762,59.159 96.096 C 59.159 96.426,59.024 96.697,58.859 96.697 C 58.694 96.697,58.559 97.170,58.559 97.748 C 58.559 98.326,58.423 98.799,58.258 98.799 C 58.093 98.799,57.958 99.272,57.958 99.850 C 57.958 100.428,57.829 100.901,57.671 100.901 C 57.514 100.901,57.296 101.374,57.187 101.952 C 57.079 102.530,56.870 103.003,56.723 103.003 C 56.577 103.003,56.456 103.341,56.456 103.754 C 56.456 104.167,56.321 104.505,56.156 104.505 C 55.991 104.505,55.856 105.113,55.856 105.856 C 55.856 106.599,55.721 107.207,55.556 107.207 C 55.390 107.207,55.255 107.801,55.255 108.526 C 55.255 109.422,55.111 109.901,54.805 110.019 C 54.509 110.132,54.354 110.601,54.354 111.384 C 54.354 112.040,54.219 112.661,54.054 112.763 C 53.889 112.865,53.754 113.548,53.754 114.282 C 53.754 115.015,53.619 115.616,53.453 115.616 C 53.288 115.616,53.153 116.074,53.153 116.635 C 53.153 117.263,52.981 117.720,52.703 117.826 C 52.372 117.953,52.252 118.475,52.252 119.793 C 52.252 120.779,52.117 121.670,51.952 121.772 C 51.787 121.874,51.652 122.752,51.652 123.724 C 51.652 124.695,51.517 125.574,51.351 125.676 C 51.186 125.778,51.051 127.120,51.051 128.664 C 51.051 130.879,50.956 131.504,50.601 131.640 C 50.284 131.762,50.150 132.256,50.150 133.306 C 50.150 134.127,50.015 134.883,49.850 134.985 C 49.437 135.240,49.437 165.060,49.850 165.315 C 50.015 165.417,50.150 166.173,50.150 166.994 C 50.150 168.044,50.284 168.539,50.601 168.660 C 50.956 168.797,51.051 169.421,51.051 171.636 C 51.051 173.181,51.186 174.522,51.351 174.625 C 51.517 174.727,51.652 175.605,51.652 176.577 C 51.652 177.548,51.787 178.426,51.952 178.529 C 52.117 178.631,52.252 179.521,52.252 180.508 C 52.252 181.825,52.372 182.347,52.703 182.474 C 52.950 182.569,53.153 182.970,53.153 183.365 C 53.153 183.761,53.288 184.084,53.453 184.084 C 53.619 184.084,53.754 184.819,53.754 185.718 C 53.754 186.617,53.889 187.435,54.054 187.538 C 54.219 187.640,54.354 188.260,54.354 188.916 C 54.354 189.699,54.509 190.168,54.805 190.282 C 55.109 190.399,55.255 190.876,55.255 191.756 C 55.255 192.472,55.390 193.141,55.556 193.243 C 55.721 193.345,55.856 193.961,55.856 194.612 C 55.856 195.263,55.991 195.796,56.156 195.796 C 56.321 195.796,56.456 196.134,56.456 196.547 C 56.456 196.959,56.592 197.297,56.757 197.297 C 56.922 197.297,57.057 197.625,57.057 198.027 C 57.057 198.428,57.260 198.959,57.508 199.206 C 57.755 199.454,57.958 200.064,57.958 200.561 C 57.958 201.059,58.093 201.550,58.258 201.652 C 58.423 201.754,58.559 202.235,58.559 202.720 C 58.559 203.206,58.694 203.604,58.859 203.604 C 59.024 203.604,59.159 203.874,59.159 204.204 C 59.159 204.538,59.359 204.805,59.610 204.805 C 59.890 204.805,60.060 205.088,60.060 205.556 C 60.060 205.968,60.195 206.306,60.360 206.306 C 60.526 206.306,60.661 206.779,60.661 207.357 C 60.661 207.935,60.796 208.408,60.961 208.408 C 61.126 208.408,61.261 208.730,61.261 209.122 C 61.261 209.515,61.436 209.982,61.650 210.159 C 61.864 210.336,62.227 210.961,62.457 211.547 C 62.687 212.133,62.985 212.613,63.119 212.613 C 63.253 212.613,63.363 213.022,63.363 213.523 C 63.363 214.055,63.550 214.505,63.814 214.606 C 64.062 214.701,64.264 215.035,64.264 215.347 C 64.264 215.660,64.399 215.916,64.565 215.916 C 64.730 215.916,64.865 216.181,64.865 216.506 C 64.865 217.145,66.296 219.907,66.712 220.070 C 66.852 220.125,66.967 220.497,66.967 220.896 C 66.967 221.295,67.102 221.622,67.267 221.622 C 67.432 221.622,67.568 221.892,67.568 222.222 C 67.568 222.553,67.703 222.823,67.868 222.823 C 68.033 222.823,68.168 223.026,68.168 223.273 C 68.168 223.521,68.371 223.724,68.619 223.724 C 68.869 223.724,69.069 223.991,69.069 224.324 C 69.069 224.655,69.204 224.925,69.369 224.925 C 69.535 224.925,69.670 225.263,69.670 225.676 C 69.670 226.089,69.805 226.426,69.970 226.426 C 70.135 226.426,70.270 226.690,70.270 227.012 C 70.270 227.334,70.439 227.706,70.646 227.838 C 70.853 227.970,71.224 228.483,71.472 228.979 C 72.016 230.068,72.520 230.631,72.952 230.631 C 73.128 230.631,73.273 230.968,73.273 231.381 C 73.273 231.794,73.408 232.132,73.574 232.132 C 73.739 232.132,73.874 232.346,73.874 232.608 C 73.874 232.869,74.347 233.542,74.925 234.104 C 75.503 234.665,75.976 235.330,75.976 235.580 C 75.976 235.831,76.086 236.036,76.220 236.036 C 76.355 236.036,76.650 236.509,76.877 237.087 C 77.104 237.665,77.467 238.138,77.684 238.138 C 77.901 238.138,78.078 238.341,78.078 238.589 C 78.078 238.836,78.213 239.039,78.378 239.039 C 78.544 239.039,78.679 239.232,78.679 239.468 C 78.679 239.704,79.287 240.532,80.030 241.307 C 80.773 242.083,81.381 242.830,81.381 242.967 C 81.381 243.104,81.719 243.554,82.132 243.967 C 82.545 244.380,82.887 244.893,82.892 245.106 C 82.904 245.561,83.603 246.547,83.913 246.547 C 84.176 246.547,84.985 247.335,84.985 247.590 C 84.985 247.901,86.438 249.249,86.773 249.249 C 86.946 249.249,87.087 249.422,87.087 249.633 C 87.087 249.845,87.357 250.212,87.688 250.450 C 88.018 250.689,88.288 251.060,88.288 251.277 C 88.288 251.493,88.491 251.748,88.739 251.843 C 88.986 251.938,89.189 252.143,89.189 252.298 C 89.189 252.681,90.587 254.054,90.977 254.054 C 91.150 254.054,91.291 254.189,91.291 254.354 C 91.291 254.814,99.643 263.063,100.108 263.063 C 100.333 263.063,100.770 263.401,101.080 263.814 C 101.390 264.227,101.765 264.565,101.913 264.565 C 102.191 264.565,103.603 266.085,103.603 266.385 C 103.603 266.478,104.077 266.740,104.655 266.967 C 105.233 267.194,105.706 267.534,105.706 267.723 C 105.706 267.912,106.044 268.247,106.456 268.468 C 106.869 268.689,107.207 268.983,107.207 269.120 C 107.207 269.257,107.416 269.369,107.672 269.369 C 107.928 269.369,108.450 269.707,108.833 270.120 C 109.215 270.533,109.749 270.871,110.019 270.871 C 110.290 270.871,110.511 271.006,110.511 271.171 C 110.511 271.336,110.655 271.471,110.832 271.471 C 111.221 271.471,112.012 272.225,112.012 272.595 C 112.012 272.741,112.466 273.039,113.022 273.257 C 113.577 273.475,114.272 273.973,114.565 274.364 C 114.859 274.755,115.321 275.075,115.591 275.075 C 115.862 275.075,116.278 275.345,116.517 275.676 C 116.755 276.006,117.257 276.276,117.634 276.276 C 118.010 276.276,118.318 276.430,118.318 276.619 C 118.318 277.034,119.221 277.755,119.758 277.768 C 119.972 277.773,120.511 278.116,120.956 278.529 C 121.401 278.941,121.936 279.279,122.144 279.279 C 122.352 279.279,122.523 279.414,122.523 279.580 C 122.523 279.745,122.793 279.880,123.123 279.880 C 123.453 279.880,123.724 280.015,123.724 280.180 C 123.724 280.345,124.004 280.480,124.346 280.480 C 125.011 280.480,125.826 281.130,125.826 281.660 C 125.826 281.837,126.164 281.982,126.577 281.982 C 126.989 281.982,127.327 282.117,127.327 282.282 C 127.327 282.447,127.598 282.583,127.928 282.583 C 128.258 282.583,128.529 282.718,128.529 282.883 C 128.529 283.048,128.866 283.183,129.279 283.183 C 129.746 283.183,130.030 283.353,130.030 283.634 C 130.030 283.881,130.292 284.084,130.613 284.084 C 130.933 284.084,131.279 284.219,131.381 284.384 C 131.483 284.550,131.829 284.685,132.150 284.685 C 132.470 284.685,132.733 284.820,132.733 284.985 C 132.733 285.150,133.071 285.285,133.483 285.285 C 133.951 285.285,134.234 285.455,134.234 285.736 C 134.234 285.986,134.501 286.186,134.835 286.186 C 135.165 286.186,135.435 286.321,135.435 286.486 C 135.435 286.652,135.773 286.787,136.186 286.787 C 136.599 286.787,136.937 286.922,136.937 287.087 C 136.937 287.252,137.275 287.387,137.688 287.387 C 138.155 287.387,138.438 287.558,138.438 287.838 C 138.438 288.115,138.720 288.288,139.171 288.288 C 139.575 288.288,139.988 288.423,140.090 288.589 C 140.192 288.754,140.606 288.889,141.009 288.889 C 141.412 288.889,141.742 289.024,141.742 289.189 C 141.742 289.354,142.151 289.489,142.652 289.489 C 143.184 289.489,143.634 289.677,143.735 289.940 C 143.830 290.188,144.231 290.390,144.627 290.390 C 145.022 290.390,145.345 290.526,145.345 290.691 C 145.345 290.856,145.608 290.991,145.928 290.991 C 146.249 290.991,146.595 291.126,146.697 291.291 C 146.799 291.456,147.280 291.592,147.765 291.592 C 148.251 291.592,148.649 291.727,148.649 291.892 C 148.649 292.057,149.122 292.192,149.700 292.192 C 150.434 292.192,150.751 292.328,150.751 292.643 C 150.751 292.923,151.034 293.093,151.502 293.093 C 151.914 293.093,152.252 293.228,152.252 293.393 C 152.252 293.559,152.725 293.694,153.303 293.694 C 153.881 293.694,154.354 293.829,154.354 293.994 C 154.354 294.159,154.962 294.294,155.706 294.294 C 156.707 294.294,157.057 294.411,157.057 294.745 C 157.057 295.078,157.407 295.195,158.408 295.195 C 159.152 295.195,159.760 295.330,159.760 295.495 C 159.760 295.661,160.368 295.796,161.111 295.796 C 161.854 295.796,162.462 295.931,162.462 296.096 C 162.462 296.261,162.742 296.396,163.085 296.396 C 163.427 296.396,163.909 296.599,164.157 296.847 C 164.456 297.146,165.206 297.297,166.388 297.297 C 167.375 297.297,168.168 297.431,168.168 297.598 C 168.168 297.764,168.969 297.898,169.970 297.898 C 170.971 297.898,171.772 298.031,171.772 298.198 C 171.772 298.365,172.580 298.498,173.595 298.498 C 174.815 298.498,175.567 298.647,175.869 298.949 C 176.116 299.197,176.839 299.399,177.474 299.399 C 178.131 299.399,178.683 299.561,178.754 299.775 C 178.937 300.325,221.063 300.325,221.246 299.775 C 221.317 299.561,221.869 299.399,222.526 299.399 C 223.161 299.399,223.884 299.197,224.131 298.949 C 224.433 298.647,225.185 298.498,226.405 298.498 C 227.420 298.498,228.228 298.365,228.228 298.198 C 228.228 298.031,229.029 297.898,230.030 297.898 C 231.031 297.898,231.832 297.764,231.832 297.598 C 231.832 297.431,232.625 297.297,233.612 297.297 C 234.794 297.297,235.544 297.146,235.843 296.847 C 236.091 296.599,236.573 296.396,236.915 296.396 C 237.258 296.396,237.538 296.261,237.538 296.096 C 237.538 295.931,238.146 295.796,238.889 295.796 C 239.632 295.796,240.240 295.661,240.240 295.495 C 240.240 295.330,240.848 295.195,241.592 295.195 C 242.593 295.195,242.943 295.078,242.943 294.745 C 242.943 294.411,243.293 294.294,244.294 294.294 C 245.038 294.294,245.646 294.159,245.646 293.994 C 245.646 293.829,246.119 293.694,246.697 293.694 C 247.275 293.694,247.748 293.559,247.748 293.393 C 247.748 293.228,248.086 293.093,248.498 293.093 C 248.966 293.093,249.249 292.923,249.249 292.643 C 249.249 292.328,249.566 292.192,250.300 292.192 C 250.878 292.192,251.351 292.057,251.351 291.892 C 251.351 291.727,251.749 291.592,252.235 291.592 C 252.720 291.592,253.201 291.456,253.303 291.291 C 253.405 291.126,253.706 290.991,253.971 290.991 C 254.632 290.991,256.757 290.031,256.757 289.732 C 256.757 289.599,257.095 289.489,257.508 289.489 C 257.920 289.489,258.258 289.354,258.258 289.189 C 258.258 289.024,258.656 288.889,259.141 288.889 C 259.627 288.889,260.108 288.754,260.210 288.589 C 260.312 288.423,260.658 288.288,260.979 288.288 C 261.299 288.288,261.562 288.086,261.562 287.838 C 261.562 287.558,261.845 287.387,262.312 287.387 C 262.725 287.387,263.063 287.252,263.063 287.087 C 263.063 286.922,263.401 286.787,263.814 286.787 C 264.227 286.787,264.565 286.652,264.565 286.486 C 264.565 286.321,264.825 286.186,265.144 286.186 C 265.462 286.186,265.926 285.983,266.173 285.736 C 266.421 285.488,266.904 285.285,267.246 285.285 C 267.588 285.285,267.868 285.150,267.868 284.985 C 267.868 284.820,268.104 284.680,268.393 284.675 C 269.042 284.663,269.970 283.987,269.970 283.525 C 269.970 283.337,270.308 283.183,270.721 283.183 C 271.134 283.183,271.471 283.048,271.471 282.883 C 271.471 282.718,271.742 282.583,272.072 282.583 C 272.402 282.583,272.673 282.447,272.673 282.282 C 272.673 282.117,273.011 281.982,273.423 281.982 C 273.836 281.982,274.174 281.837,274.174 281.660 C 274.174 281.130,274.989 280.480,275.654 280.480 C 275.996 280.480,276.276 280.345,276.276 280.180 C 276.276 280.015,276.547 279.880,276.877 279.880 C 277.207 279.880,277.477 279.745,277.477 279.580 C 277.477 279.414,277.674 279.279,277.914 279.279 C 278.155 279.279,278.689 278.941,279.102 278.529 C 279.515 278.116,280.028 277.773,280.242 277.768 C 280.779 277.755,281.682 277.034,281.682 276.619 C 281.682 276.430,281.990 276.276,282.366 276.276 C 282.743 276.276,283.245 276.006,283.483 275.676 C 283.722 275.345,284.138 275.075,284.409 275.075 C 284.679 275.075,285.155 274.737,285.465 274.324 C 285.775 273.911,286.233 273.569,286.483 273.564 C 286.988 273.553,287.988 272.875,287.988 272.543 C 287.988 272.128,288.854 271.471,289.402 271.471 C 289.707 271.471,290.152 271.201,290.390 270.871 C 290.628 270.541,290.979 270.270,291.170 270.270 C 291.360 270.270,292.032 269.797,292.664 269.219 C 293.295 268.641,293.920 268.168,294.053 268.168 C 294.186 268.168,294.294 267.965,294.294 267.718 C 294.294 267.467,294.561 267.267,294.895 267.267 C 295.225 267.267,295.495 267.132,295.495 266.967 C 295.495 266.802,295.698 266.667,295.946 266.667 C 296.194 266.667,296.397 266.565,296.397 266.441 C 296.397 266.058,297.799 264.565,298.158 264.565 C 298.345 264.565,298.498 264.429,298.498 264.264 C 298.498 264.099,298.705 263.964,298.958 263.964 C 299.211 263.964,299.496 263.761,299.591 263.514 C 299.686 263.266,299.892 263.063,300.049 263.063 C 300.206 263.063,301.677 261.712,303.318 260.060 C 304.959 258.408,306.438 257.057,306.604 257.057 C 306.771 257.057,306.907 256.909,306.907 256.727 C 306.907 256.546,307.312 256.018,307.808 255.556 C 308.303 255.093,308.709 254.566,308.709 254.384 C 308.709 254.203,308.850 254.054,309.023 254.054 C 309.430 254.054,310.811 252.674,310.811 252.266 C 310.811 252.093,311.002 251.952,311.236 251.952 C 311.470 251.952,311.841 251.547,312.060 251.051 C 312.279 250.556,312.561 250.150,312.686 250.150 C 312.811 250.150,312.913 249.947,312.913 249.700 C 312.913 249.452,313.054 249.249,313.227 249.249 C 313.635 249.249,315.015 247.869,315.015 247.461 C 315.015 247.288,315.132 247.147,315.274 247.147 C 315.695 247.147,317.117 245.601,317.117 245.143 C 317.117 244.912,317.725 244.131,318.468 243.409 C 319.212 242.687,319.820 241.942,319.820 241.754 C 319.820 241.566,320.158 241.100,320.571 240.717 C 320.983 240.334,321.321 239.800,321.321 239.530 C 321.321 239.260,321.456 239.039,321.622 239.039 C 321.787 239.039,321.922 238.836,321.922 238.589 C 321.922 238.341,322.076 238.138,322.264 238.138 C 322.726 238.138,323.402 237.211,323.414 236.562 C 323.419 236.273,323.559 236.036,323.724 236.036 C 323.889 236.036,324.024 235.861,324.024 235.648 C 324.024 235.435,324.497 234.759,325.075 234.146 C 325.653 233.533,326.126 232.829,326.126 232.582 C 326.126 232.335,326.261 232.132,326.426 232.132 C 326.592 232.132,326.727 231.794,326.727 231.381 C 326.727 230.968,326.872 230.631,327.048 230.631 C 327.464 230.631,328.228 229.867,328.228 229.451 C 328.228 229.274,328.363 229.129,328.529 229.129 C 328.694 229.129,328.829 228.873,328.829 228.561 C 328.829 228.248,329.032 227.914,329.279 227.819 C 329.527 227.724,329.730 227.372,329.730 227.036 C 329.730 226.701,329.865 226.426,330.030 226.426 C 330.195 226.426,330.330 226.089,330.330 225.676 C 330.330 225.263,330.465 224.925,330.631 224.925 C 330.796 224.925,330.931 224.655,330.931 224.324 C 330.931 223.991,331.131 223.724,331.381 223.724 C 331.629 223.724,331.832 223.521,331.832 223.273 C 331.832 223.026,331.967 222.823,332.132 222.823 C 332.297 222.823,332.432 222.553,332.432 222.222 C 332.432 221.892,332.568 221.622,332.733 221.622 C 332.898 221.622,333.033 221.284,333.033 220.871 C 333.033 220.404,333.203 220.120,333.483 220.120 C 333.731 220.120,333.934 219.858,333.934 219.537 C 333.934 219.217,334.069 218.871,334.234 218.769 C 334.399 218.667,334.535 218.321,334.535 218.000 C 334.535 217.680,334.670 217.417,334.835 217.417 C 335.000 217.417,335.135 217.080,335.135 216.667 C 335.135 216.254,335.270 215.916,335.435 215.916 C 335.601 215.916,335.736 215.646,335.736 215.315 C 335.736 214.982,335.936 214.715,336.186 214.715 C 336.501 214.715,336.637 214.398,336.637 213.664 C 336.637 213.086,336.772 212.613,336.937 212.613 C 337.102 212.613,337.237 212.410,337.237 212.162 C 337.237 211.914,337.372 211.712,337.538 211.712 C 337.703 211.712,337.838 211.456,337.838 211.143 C 337.838 210.831,338.041 210.497,338.288 210.402 C 338.552 210.301,338.739 209.851,338.739 209.319 C 338.739 208.818,338.874 208.408,339.039 208.408 C 339.204 208.408,339.339 207.935,339.339 207.357 C 339.339 206.779,339.474 206.306,339.640 206.306 C 339.805 206.306,339.940 205.968,339.940 205.556 C 339.940 205.088,340.110 204.805,340.390 204.805 C 340.641 204.805,340.841 204.538,340.841 204.204 C 340.841 203.874,340.976 203.604,341.141 203.604 C 341.306 203.604,341.441 203.131,341.441 202.553 C 341.441 201.974,341.577 201.502,341.742 201.502 C 341.907 201.502,342.042 201.086,342.042 200.579 C 342.042 200.072,342.245 199.454,342.492 199.206 C 342.740 198.959,342.943 198.428,342.943 198.027 C 342.943 197.625,343.078 197.297,343.243 197.297 C 343.408 197.297,343.544 196.959,343.544 196.547 C 343.544 196.134,343.679 195.796,343.844 195.796 C 344.009 195.796,344.144 195.188,344.144 194.444 C 344.144 193.701,344.279 193.093,344.444 193.093 C 344.610 193.093,344.745 192.499,344.745 191.774 C 344.745 190.878,344.889 190.399,345.195 190.282 C 345.504 190.163,345.646 189.681,345.646 188.748 C 345.646 188.000,345.781 187.387,345.946 187.387 C 346.111 187.387,346.246 186.644,346.246 185.736 C 346.246 184.827,346.381 184.084,346.547 184.084 C 346.712 184.084,346.847 183.611,346.847 183.033 C 346.847 182.299,346.983 181.982,347.297 181.982 C 347.643 181.982,347.748 181.600,347.748 180.348 C 347.748 179.449,347.883 178.631,348.048 178.529 C 348.213 178.426,348.348 177.345,348.348 176.126 C 348.348 174.907,348.483 173.826,348.649 173.724 C 348.814 173.622,348.949 172.523,348.949 171.282 C 348.949 169.677,349.079 168.896,349.399 168.576 C 349.698 168.277,349.850 167.527,349.850 166.345 C 349.850 165.358,349.984 164.565,350.150 164.565 C 350.346 164.565,350.450 159.560,350.450 150.150 C 350.450 140.741,350.346 135.736,350.150 135.736 C 349.984 135.736,349.850 134.942,349.850 133.955 C 349.850 132.773,349.698 132.024,349.399 131.725 C 349.078 131.404,348.949 130.621,348.949 129.000 C 348.949 127.685,348.822 126.727,348.649 126.727 C 348.475 126.727,348.348 125.782,348.348 124.492 C 348.348 123.263,348.213 122.174,348.048 122.072 C 347.883 121.970,347.748 121.084,347.748 120.102 C 347.748 118.717,347.647 118.318,347.297 118.318 C 346.964 118.318,346.847 117.968,346.847 116.967 C 346.847 116.224,346.712 115.616,346.547 115.616 C 346.381 115.616,346.246 115.015,346.246 114.282 C 346.246 113.548,346.111 112.865,345.946 112.763 C 345.781 112.661,345.646 112.040,345.646 111.384 C 345.646 110.601,345.491 110.132,345.195 110.019 C 344.889 109.901,344.745 109.422,344.745 108.526 C 344.745 107.801,344.610 107.207,344.444 107.207 C 344.279 107.207,344.144 106.742,344.144 106.174 C 344.144 105.606,344.009 105.057,343.844 104.955 C 343.679 104.853,343.544 104.372,343.544 103.886 C 343.544 103.400,343.408 103.003,343.243 103.003 C 343.078 103.003,342.943 102.675,342.943 102.274 C 342.943 101.873,342.740 101.342,342.492 101.094 C 342.245 100.846,342.042 100.228,342.042 99.721 C 342.042 99.214,341.907 98.799,341.742 98.799 C 341.577 98.799,341.441 98.326,341.441 97.748 C 341.441 97.170,341.306 96.697,341.141 96.697 C 340.976 96.697,340.841 96.426,340.841 96.096 C 340.841 95.762,340.641 95.495,340.390 95.495 C 340.092 95.495,339.940 95.197,339.940 94.612 C 339.940 94.127,339.805 93.646,339.640 93.544 C 339.474 93.441,339.339 93.028,339.339 92.625 C 339.339 92.222,339.204 91.892,339.039 91.892 C 338.874 91.892,338.739 91.482,338.739 90.982 C 338.739 90.449,338.552 89.999,338.288 89.898 C 338.041 89.803,337.838 89.470,337.838 89.157 C 337.838 88.844,337.703 88.589,337.538 88.589 C 337.372 88.589,337.237 88.326,337.237 88.006 C 337.237 87.685,337.102 87.339,336.937 87.237 C 336.772 87.135,336.637 86.722,336.637 86.319 C 336.637 85.867,336.464 85.586,336.186 85.586 C 335.936 85.586,335.736 85.319,335.736 84.985 C 335.736 84.655,335.601 84.384,335.435 84.384 C 335.270 84.384,335.135 83.911,335.135 83.333 C 335.135 82.755,335.015 82.282,334.869 82.282 C 334.723 82.282,334.379 81.809,334.104 81.231 C 333.830 80.653,333.477 80.180,333.319 80.180 C 333.162 80.180,333.033 79.842,333.033 79.429 C 333.033 79.017,332.898 78.679,332.733 78.679 C 332.568 78.679,332.432 78.408,332.432 78.078 C 332.432 77.748,332.297 77.477,332.132 77.477 C 331.967 77.477,331.832 77.281,331.832 77.041 C 331.832 76.800,331.494 76.266,331.081 75.853 C 330.668 75.440,330.330 74.826,330.330 74.488 C 330.330 74.150,330.195 73.874,330.030 73.874 C 329.865 73.874,329.730 73.599,329.730 73.264 C 329.730 72.928,329.527 72.576,329.279 72.481 C 329.032 72.386,328.829 72.052,328.829 71.740 C 328.829 71.427,328.694 71.171,328.529 71.171 C 328.363 71.171,328.228 70.968,328.228 70.721 C 328.228 70.473,328.093 70.270,327.928 70.270 C 327.763 70.270,327.628 70.074,327.628 69.835 C 327.628 69.595,327.458 69.291,327.252 69.159 C 327.045 69.027,326.673 68.514,326.426 68.018 C 326.178 67.523,325.672 66.807,325.300 66.428 C 324.929 66.049,324.625 65.572,324.625 65.368 C 324.625 65.164,324.354 64.803,324.024 64.565 C 323.694 64.326,323.419 63.925,323.414 63.672 C 323.402 63.078,322.704 62.162,322.264 62.162 C 322.076 62.162,321.922 61.911,321.922 61.604 C 321.922 61.296,321.449 60.543,320.871 59.931 C 320.293 59.318,319.820 58.679,319.820 58.510 C 319.820 58.342,319.212 57.614,318.468 56.891 C 317.725 56.169,317.117 55.352,317.117 55.076 C 317.117 54.596,315.710 53.154,315.240 53.154 C 315.116 53.153,315.015 53.012,315.015 52.839 C 315.015 52.432,313.635 51.051,313.227 51.051 C 313.054 51.051,312.913 50.848,312.913 50.601 C 312.913 50.353,312.778 50.150,312.613 50.150 C 312.447 50.150,312.312 49.938,312.312 49.678 C 312.312 49.139,311.611 48.348,311.133 48.348 C 310.956 48.348,310.811 48.207,310.811 48.034 C 310.811 47.627,309.430 46.246,309.023 46.246 C 308.850 46.246,308.709 46.093,308.709 45.906 C 308.709 45.719,308.463 45.347,308.162 45.080 C 307.862 44.813,307.527 44.355,307.418 44.062 C 307.310 43.769,306.986 43.440,306.699 43.329 C 306.411 43.219,305.336 42.276,304.309 41.234 C 303.282 40.192,302.298 39.339,302.122 39.339 C 301.946 39.339,301.802 39.198,301.802 39.025 C 301.802 38.713,300.463 37.237,300.179 37.237 C 300.098 37.237,299.666 36.899,299.221 36.486 C 298.775 36.074,298.286 35.736,298.133 35.736 C 297.807 35.736,296.997 34.973,296.997 34.666 C 296.997 34.270,295.348 33.034,294.820 33.033 C 294.531 33.033,294.294 32.830,294.294 32.583 C 294.294 32.335,294.179 32.132,294.039 32.132 C 293.898 32.132,293.359 31.727,292.840 31.231 C 292.322 30.736,291.778 30.330,291.632 30.330 C 291.486 30.330,290.850 29.857,290.219 29.279 C 289.588 28.701,288.828 28.228,288.530 28.228 C 288.232 28.228,287.988 28.083,287.988 27.906 C 287.988 27.421,287.194 26.727,286.638 26.727 C 286.367 26.727,285.700 26.254,285.155 25.676 C 284.609 25.098,283.943 24.625,283.673 24.625 C 283.404 24.625,283.183 24.489,283.183 24.324 C 283.183 24.159,282.845 24.024,282.432 24.024 C 282.020 24.024,281.682 23.883,281.682 23.710 C 281.682 23.163,280.232 21.922,279.593 21.922 C 279.255 21.922,278.979 21.797,278.979 21.644 C 278.979 21.323,277.283 20.420,276.681 20.420 C 276.458 20.420,276.276 20.285,276.276 20.120 C 276.276 19.955,276.040 19.816,275.751 19.810 C 275.102 19.798,274.174 19.122,274.174 18.661 C 274.174 18.472,273.912 18.318,273.591 18.318 C 273.271 18.318,272.925 18.183,272.823 18.018 C 272.721 17.853,272.375 17.718,272.054 17.718 C 271.734 17.718,271.471 17.583,271.471 17.417 C 271.471 17.252,271.134 17.117,270.721 17.117 C 270.308 17.117,269.970 16.963,269.970 16.775 C 269.970 16.313,269.042 15.637,268.393 15.625 C 268.104 15.620,267.868 15.480,267.868 15.315 C 267.868 15.150,267.395 15.015,266.817 15.015 C 266.083 15.015,265.766 14.879,265.766 14.565 C 265.766 14.314,265.499 14.114,265.165 14.114 C 264.835 14.114,264.565 13.979,264.565 13.814 C 264.565 13.649,264.227 13.514,263.814 13.514 C 263.401 13.514,263.063 13.378,263.063 13.213 C 263.063 13.048,262.725 12.913,262.312 12.913 C 261.845 12.913,261.562 12.743,261.562 12.462 C 261.562 12.215,261.357 12.012,261.107 12.012 C 260.857 12.012,260.350 11.856,259.981 11.665 C 258.512 10.905,258.238 10.811,257.512 10.811 C 257.096 10.811,256.757 10.676,256.757 10.511 C 256.757 10.345,256.501 10.210,256.188 10.210 C 255.876 10.210,255.542 10.008,255.447 9.760 C 255.346 9.496,254.896 9.309,254.364 9.309 C 253.863 9.309,253.453 9.174,253.453 9.009 C 253.453 8.844,252.980 8.709,252.402 8.709 C 251.824 8.709,251.351 8.574,251.351 8.408 C 251.351 8.243,250.878 8.108,250.300 8.108 C 249.566 8.108,249.249 7.972,249.249 7.658 C 249.249 7.377,248.966 7.207,248.498 7.207 C 248.086 7.207,247.748 7.072,247.748 6.907 C 247.748 6.742,247.275 6.607,246.697 6.607 C 246.119 6.607,245.646 6.471,245.646 6.306 C 245.646 6.141,245.231 6.006,244.723 6.006 C 244.216 6.006,243.598 5.803,243.350 5.556 C 243.086 5.291,242.352 5.105,241.570 5.105 C 240.839 5.105,240.240 4.970,240.240 4.805 C 240.240 4.640,239.632 4.505,238.889 4.505 C 238.146 4.505,237.538 4.369,237.538 4.204 C 237.538 4.039,237.079 3.904,236.519 3.904 C 235.923 3.904,235.433 3.730,235.339 3.484 C 235.184 3.082,234.469 2.944,230.330 2.519 C 229.422 2.426,228.550 2.226,228.393 2.076 C 228.236 1.925,227.324 1.802,226.366 1.802 C 225.408 1.802,224.625 1.673,224.625 1.515 C 224.625 1.357,224.118 1.147,223.498 1.048 C 222.879 0.949,222.102 0.712,221.772 0.522 C 221.191 0.187,188.413 -0.077,181.532 0.198 M154.858 72.999 C 156.326 73.709,157.090 74.673,157.603 76.461 C 158.093 78.166,158.118 222.949,157.629 225.228 C 156.130 232.220,148.132 230.487,147.609 223.057 C 147.179 216.954,147.577 76.805,148.027 75.602 C 149.031 72.920,152.200 71.712,154.858 72.999 M132.612 108.259 C 133.317 108.673,134.208 109.450,134.590 109.986 L 135.285 110.961 135.285 150.924 L 135.285 190.888 134.425 192.016 C 131.922 195.297,127.568 195.011,125.703 191.441 C 124.978 190.054,124.531 118.324,125.214 113.063 C 125.833 108.299,129.081 106.190,132.612 108.259 M177.446 108.506 C 178.233 108.895,179.082 109.644,179.548 110.360 L 180.330 111.562 180.330 151.098 L 180.330 190.635 179.407 191.776 C 176.489 195.381,171.263 194.994,169.166 191.019 L 168.468 189.695 168.468 151.040 C 168.468 108.316,168.334 111.210,170.404 109.241 C 172.265 107.471,174.815 107.204,177.446 108.506 M218.122 107.959 C 218.973 108.207,220.111 108.824,220.649 109.329 C 222.646 111.201,222.523 108.439,222.523 151.204 L 222.523 190.022 221.547 191.451 C 219.048 195.109,214.391 195.267,211.590 191.789 L 210.661 190.635 210.661 151.098 L 210.661 111.562 211.351 110.460 C 212.150 109.186,213.156 108.459,214.859 107.926 C 216.425 107.435,216.323 107.434,218.122 107.959 M262.531 108.001 C 263.627 108.241,265.144 109.841,265.648 111.288 C 265.985 112.256,266.057 119.285,266.055 151.201 L 266.052 189.940 265.233 191.441 C 263.341 194.912,258.039 195.097,256.208 191.756 C 255.463 190.399,255.270 112.876,256.006 110.931 C 256.795 108.845,259.267 107.275,261.111 107.688 C 261.441 107.762,262.080 107.903,262.531 108.001 M197.526 127.419 C 199.176 127.912,200.694 129.357,201.145 130.862 C 201.819 133.113,201.624 170.123,200.929 171.651 C 199.261 175.325,194.193 175.677,191.941 172.274 L 191.141 171.065 191.141 150.923 L 191.141 130.781 191.844 129.651 C 192.653 128.349,194.210 127.401,196.096 127.063 C 196.179 127.048,196.822 127.208,197.526 127.419 M240.973 127.538 C 242.898 127.918,244.661 130.272,244.887 132.764 C 245.413 138.552,244.926 170.674,244.298 171.622 C 241.537 175.791,236.273 175.643,233.594 171.321 C 233.064 170.467,233.035 169.407,233.034 151.004 L 233.033 131.588 233.706 130.328 C 234.747 128.378,237.507 126.852,239.339 127.215 C 239.752 127.297,240.487 127.442,240.973 127.538 M285.364 127.402 C 288.587 129.204,288.425 128.069,288.532 149.550 C 288.642 171.729,288.701 170.869,286.926 172.722 C 284.455 175.299,280.963 175.068,279.131 172.205 L 278.078 170.559 278.078 150.782 C 278.078 129.646,278.072 129.743,279.557 128.399 C 281.039 127.057,283.876 126.571,285.364 127.402 M112.900 135.975 C 113.471 136.256,114.363 137.045,114.882 137.728 L 115.827 138.969 115.955 144.184 C 116.229 155.378,115.866 163.115,115.015 164.174 C 112.164 167.722,107.356 166.830,105.791 162.462 C 105.256 160.968,105.256 140.833,105.791 139.339 C 106.963 136.068,110.087 134.590,112.900 135.975 M304.599 135.780 C 305.612 136.313,307.018 137.543,307.422 138.250 C 308.124 139.480,307.944 162.519,307.221 163.936 C 305.479 167.351,299.899 167.049,298.309 163.453 C 297.303 161.179,297.186 140.417,298.169 138.502 C 299.506 135.895,302.449 134.649,304.599 135.780 " stroke="none" fill="#fb0434" fill-rule="evenodd"></path></g></svg>